<?xml version="1.0" encoding="utf-8"?>
<!-- Generator: Adobe Illustrator 26.0.1, SVG Export Plug-In . SVG Version: 6.00 Build 0)  -->
<svg version="1.1" id="Layer_1" xmlns="http://www.w3.org/2000/svg" xmlns:xlink="http://www.w3.org/1999/xlink" x="0px" y="0px"
	 viewBox="0 0 841.37 168.69" style="enable-background:new 0 0 841.37 168.69;" xml:space="preserve">
<style type="text/css">
	.st0{fill:#FC5954;}
	.st1{fill:#12A0C6;}
	.st2{fill:#FFFFFF;}
</style>
<g>
	<g>
		<g>
			<g>
				<path class="st0" d="M74.02,130.2c-28.07,0-50.91-23.56-50.91-52.52s22.84-52.52,50.91-52.52s50.91,23.56,50.91,52.52v6.78
					h-88.1c3.12,18.26,18.61,32.18,37.19,32.18V130.2z M36.83,70.91h74.38c-3.12-18.26-18.61-32.18-37.19-32.18
					C55.44,38.73,39.95,52.64,36.83,70.91z"/>
			</g>
		</g>
		<rect x="78.99" y="104.63" class="st1" width="24.16" height="24.93"/>
		<rect x="107.74" y="93.72" class="st1" width="13.71" height="14.14"/>
		<rect x="119.35" y="111.94" class="st1" width="8.8" height="9.08"/>
	</g>
	<g>
		<g>
			<path class="st2" d="M174.55,50.27v22.11h33.94l3.9,15.6h-37.84v22.11h45.65v15.61h-61.25V34.67h61.25v15.61L174.55,50.27
				L174.55,50.27z"/>
			<path class="st2" d="M284.04,38.24c5.55,2.39,10.38,5.64,14.5,9.75c4.12,4.12,7.37,8.95,9.75,14.5s3.58,11.44,3.58,17.69
				c0,6.24-1.19,12.14-3.58,17.69c-2.39,5.55-5.64,10.38-9.75,14.5c-4.12,4.12-8.95,7.37-14.5,9.75
				c-5.55,2.39-11.44,3.58-17.69,3.58h-16.13l6.37-15.61h9.75c3.99,0,7.8-0.76,11.44-2.28s6.89-3.66,9.75-6.44
				c2.77-2.86,4.92-6.09,6.44-9.69s2.28-7.43,2.28-11.51c0-3.99-0.76-7.8-2.28-11.44s-3.66-6.89-6.44-9.75
				c-2.86-2.77-6.11-4.92-9.75-6.44s-7.46-2.28-11.44-2.28h-22.11v37.71v22.11v15.61h-15.6V34.67h37.71
				C272.6,34.67,278.49,35.86,284.04,38.24z"/>
			<path class="st2" d="M395.49,34.67v54.62c0,5.29-1,10.25-2.99,14.89c-2,4.64-4.73,8.69-8.19,12.16
				c-3.47,3.47-7.52,6.2-12.16,8.19c-4.64,1.99-9.6,2.99-14.89,2.99s-10.25-1-14.89-2.99s-8.69-4.72-12.16-8.19
				s-6.2-7.52-8.19-12.16c-2-4.64-2.99-9.6-2.99-14.89V34.67h15.6v54.62c0,3.04,0.56,5.92,1.69,8.65s2.77,5.18,4.94,7.35
				s4.62,3.82,7.35,4.94c2.73,1.13,5.61,1.69,8.65,1.69c6.24,0,11.57-2.21,16-6.63c2.17-2.17,3.81-4.62,4.94-7.35
				c1.13-2.73,1.69-5.61,1.69-8.65V34.67H395.49z"/>
			<path class="st2" d="M463.11,125.7L426.7,34.67h16.91l27.7,69.31l25.75-69.31h16.65L479.9,125.7H463.11z"/>
			<path class="st2" d="M535.81,125.7h-15.6V34.8h15.6V125.7z"/>
			<path class="st2" d="M609.67,99.69c0,4.25-0.7,8.08-2.08,11.51c-1.39,3.43-3.36,6.33-5.92,8.71c-2.56,2.39-5.66,4.23-9.3,5.53
				c-3.64,1.3-7.72,1.95-12.22,1.95c-7.2,0-13.61-1.15-19.25-3.45c-5.64-2.3-10.27-4.92-13.91-7.87l10.79-10.79
				c2.86,2.6,6.07,4.6,9.62,5.98c2.17,0.87,4.2,1.43,6.11,1.69s3.47,0.39,4.68,0.39c2.25,0,4.31-0.28,6.18-0.84
				c1.86-0.56,3.49-1.32,4.88-2.28c2.95-2.17,4.42-5.03,4.42-8.58c0-2.17-0.78-4.12-2.34-5.85c-1.22-1.39-2.78-2.51-4.68-3.38
				c-1.56-0.87-3.21-1.56-4.94-2.08c-1.74-0.52-3.3-1-4.68-1.43c-0.44-0.17-0.83-0.28-1.17-0.33c-0.35-0.04-0.65-0.15-0.91-0.32
				c-0.17,0-0.43-0.09-0.78-0.26c-1.82-0.52-4.44-1.43-7.87-2.73s-6.83-3.08-10.21-5.33c-7.89-5.29-11.83-11.79-11.83-19.51
				c0-5.11,0.89-9.43,2.67-12.94c1.78-3.51,4.1-6.37,6.96-8.58c2.86-2.21,6.05-3.79,9.56-4.75c3.51-0.95,6.96-1.43,10.34-1.43
				c6.24,0,11.49,0.74,15.73,2.21c4.25,1.48,7.63,2.95,10.14,4.42c1.3,0.78,2.41,1.54,3.32,2.28c0.91,0.74,1.71,1.41,2.41,2.02
				l-11.05,11.18c-2.34-2.34-4.73-4.12-7.15-5.33c-3.64-1.73-7.46-2.6-11.44-2.6c-1.74,0-3.47,0.22-5.2,0.65
				c-1.74,0.44-3.25,1-4.55,1.69c-3.82,2.34-5.72,5.42-5.72,9.23c0,2.34,0.78,4.34,2.34,5.98c1.13,1.3,2.69,2.47,4.68,3.51
				c1.65,0.87,3.38,1.56,5.2,2.08s3.51,1,5.07,1.43l1.56,0.39c0.43,0.17,1.26,0.43,2.47,0.78c1.21,0.35,2.64,0.87,4.29,1.56
				c1.65,0.69,3.45,1.52,5.4,2.47c1.95,0.96,3.88,2.08,5.79,3.38C605.46,85.6,609.67,92.15,609.67,99.69z"/>
			<path class="st2" d="M633.73,125.7h-15.6V34.8h15.6V125.7z"/>
			<path class="st2" d="M689.52,32.71c6.5,0,12.63,1.24,18.4,3.71c5.76,2.47,10.79,5.85,15.08,10.14
				c4.29,4.29,7.67,9.32,10.14,15.08c2.47,5.77,3.71,11.9,3.71,18.4s-1.24,12.64-3.71,18.4c-2.47,5.77-5.85,10.79-10.14,15.08
				c-4.29,4.29-9.32,7.67-15.08,10.14c-5.77,2.47-11.9,3.71-18.4,3.71s-12.64-1.24-18.4-3.71c-5.77-2.47-10.79-5.85-15.08-10.14
				c-4.29-4.29-7.67-9.32-10.14-15.08c-2.47-5.76-3.71-11.9-3.71-18.4s1.24-12.63,3.71-18.4c2.47-5.76,5.85-10.79,10.14-15.08
				c4.29-4.29,9.32-7.67,15.08-10.14C676.88,33.95,683.01,32.71,689.52,32.71z M689.52,48.32c-4.25,0-8.28,0.8-12.09,2.41
				c-3.82,1.61-7.24,3.92-10.27,6.96c-3.04,3.04-5.35,6.46-6.96,10.27c-1.6,3.82-2.41,7.85-2.41,12.09c0,4.25,0.8,8.3,2.41,12.16
				c1.6,3.86,3.92,7.3,6.96,10.34c3.03,3.04,6.46,5.33,10.27,6.89s7.84,2.34,12.09,2.34s8.3-0.78,12.16-2.34s7.3-3.86,10.34-6.89
				c3.03-3.03,5.33-6.48,6.89-10.34c1.56-3.86,2.34-7.91,2.34-12.16s-0.78-8.28-2.34-12.09s-3.86-7.24-6.89-10.27
				c-3.04-3.03-6.48-5.35-10.34-6.96C697.82,49.12,693.76,48.32,689.52,48.32z"/>
			<path class="st2" d="M813.71,34.54v91.03H796.8l-36.54-62.29v62.29h-15.61V34.54h16.91l36.54,62.29V34.54H813.71z"/>
		</g>
	</g>
</g>
</svg>
